<?xml version="1.0" encoding="UTF-8"?>
<svg version="1.1" xmlns="http://www.w3.org/2000/svg" width="816" height="539">
<path d="M0 0 C269.28 0 538.56 0 816 0 C816 177.87 816 355.74 816 539 C546.72 539 277.44 539 0 539 C0 361.13 0 183.26 0 0 Z " fill="#1D1D1D" transform="translate(0,0)"/>
<path d="M0 0 C1.32 0.33 2.64 0.66 4 1 C4 10.57 4 20.14 4 30 C5.815 28.453125 7.63 26.90625 9.5 25.3125 C10.68639085 24.31248474 11.87376146 23.31362963 13.0625 22.31640625 C15.80912504 20.01060618 18.53283064 17.68024714 21.25 15.33984375 C22.66601552 14.1424587 24.08267114 12.94583018 25.5 11.75 C26.16966797 11.16516846 26.83933594 10.58033691 27.52929688 9.9777832 C32.33396361 5.96845091 32.33396361 5.96845091 35.96875 6.140625 C36.6390625 6.42421875 37.309375 6.7078125 38 7 C36.9696197 14.76338259 27.39882803 20.77071353 21.6875 25.375 C20.83236816 26.07463867 19.97723633 26.77427734 19.09619141 27.49511719 C17.5347119 28.75838637 15.97161303 30.02120855 14.3625946 31.2233429 C8.23011327 35.81559026 2.70685165 40.11941732 1.28042603 47.97515869 C0.93717948 50.89895506 0.71767257 53.80784328 0.59622192 56.74914551 C0.46401288 59.92769743 0.1978276 63.09128625 -0.05967712 66.26174927 C-0.18889237 67.86773779 -0.31153155 69.47426932 -0.42750549 71.08126831 C-1.68256885 88.12550922 -5.39061586 104.8818962 -11 121 C-11.36609375 122.23234375 -11.7321875 123.4646875 -12.109375 124.734375 C-16.49366929 139.20855205 -24.20077213 156.75628717 -37.9375 164.5625 C-43.94750944 167.06467525 -49.5939777 167.88220818 -55.75 165.625 C-60.02627898 162.71027211 -62.49365721 158.42787226 -65 154 C-65.61875 152.9275 -66.2375 151.855 -66.875 150.75 C-72.19430992 133.01896694 -61.50685922 114.26830258 -53.36328125 98.9140625 C-51.97249018 96.55924364 -50.51692254 94.27538382 -49 92 C-48.39671875 91.06414062 -47.7934375 90.12828125 -47.171875 89.1640625 C-37.6639182 74.6026641 -26.72932139 61.52001328 -15.1875 48.5625 C-14.47980469 47.76714844 -13.77210938 46.97179687 -13.04296875 46.15234375 C-11 44 -11 44 -8.92578125 42.25390625 C-4.92653906 38.87118009 -3.56291631 36.59771879 -3.0625 31.3125 C-3.00399679 29.20904362 -2.98469662 27.10421415 -3 25 C-2.98710938 23.86433594 -2.97421875 22.72867187 -2.9609375 21.55859375 C-2.9407169 18.70411888 -2.95445639 15.85406625 -3 13 C-4.14628335 13.99948412 -5.29198853 14.99963131 -6.4375 16 C-7.16324219 16.63292969 -7.88898437 17.26585937 -8.63671875 17.91796875 C-10.2336531 19.32485472 -11.81939123 20.74453656 -13.39453125 22.17578125 C-14.17183594 22.88089844 -14.94914063 23.58601563 -15.75 24.3125 C-16.46671875 24.96863281 -17.1834375 25.62476563 -17.921875 26.30078125 C-20.80272211 28.65636112 -22.79365442 30.05884613 -26.5625 29.875 C-29.72475722 28.73983074 -30.55030646 28.0519864 -32 25 C-33.29408731 17.55110717 -30.60804281 10.88104153 -28 4 C-26.68 4 -25.36 4 -24 4 C-22.08319426 7.83361148 -22.49885959 12.28097186 -23.671875 16.3046875 C-24.39574442 18.22362436 -25.19209989 20.11489973 -26 22 C-18.31496919 16.31483809 -11.04927893 10.48045232 -4.31567383 3.67285156 C-2.77734375 2.17578125 -2.77734375 2.17578125 0 0 Z " fill="#242424" transform="translate(565,235)"/>
<path d="M0 0 C2.82957829 0.36276645 5.29084291 1.09694764 8 2 C6.64372433 5.01688637 5.09391814 7.11938977 2.8125 9.5 C-0.91094226 13.65604136 -3.58582789 18.13359582 -6.30859375 22.98828125 C-7.84746263 25.72839189 -9.46622964 28.39404333 -11.125 31.0625 C-16.59832675 40.17987189 -20.2888089 50.0666417 -24 60 C-23.07767578 59.89171875 -23.07767578 59.89171875 -22.13671875 59.78125 C-21.32847656 59.6884375 -20.52023437 59.595625 -19.6875 59.5 C-18.88699219 59.4071875 -18.08648437 59.314375 -17.26171875 59.21875 C-15 59 -15 59 -12 59 C-11.505 58.01 -11.505 58.01 -11 57 C-10.01 57.495 -10.01 57.495 -9 58 C-9 57.34 -9 56.68 -9 56 C-7.9275 55.87625 -6.855 55.7525 -5.75 55.625 C-2.20460221 55.23086473 -2.20460221 55.23086473 -0.0625 54 C3.16718959 52.43408989 6.44220809 52.35577919 10 52 C10 51.01 10 50.02 10 49 C11.93356782 48.30151736 13.87202298 47.61655186 15.8125 46.9375 C16.89144531 46.55464844 17.97039062 46.17179687 19.08203125 45.77734375 C22 45 22 45 25 46 C23.515 46.495 23.515 46.495 22 47 C22 48.65 22 50.3 22 52 C11.8770563 55.95926021 1.67424215 59.46353564 -8.72314453 62.63891602 C-9.62532715 62.91791748 -10.52750977 63.19691895 -11.45703125 63.484375 C-12.6632312 63.85127441 -12.6632312 63.85127441 -13.89379883 64.22558594 C-16.25281399 64.99991311 -16.25281399 64.99991311 -19 67 C-21.32873375 67.68255989 -23.66182791 68.35050775 -26 69 C-26.33 69.33 -26.66 69.66 -27 70 C-26.2265625 70.25652344 -25.453125 70.51304687 -24.65625 70.77734375 C-15.5333674 74.13068055 -10.24334541 78.50953307 -5.30859375 86.86328125 C-2.23287371 94.2358281 -3.1441365 103.76560587 -5.765625 111.234375 C-10.52921011 121.90721758 -16.52781971 135.2866236 -28 140 C-32.44507237 140.42334023 -34.83349298 140.63627655 -38.75 138.5 C-47.44562759 128.83819157 -46.80162751 116.52362523 -46.29150391 104.26025391 C-45.34040306 93.62289985 -42.04861253 82.8585352 -38 73 C-38.9075 72.896875 -39.815 72.79375 -40.75 72.6875 C-44.01961575 71.99585051 -45.53717737 71.17865079 -48 69 C-47.67 67.68 -47.34 66.36 -47 65 C-46.13117188 64.99484375 -45.26234375 64.9896875 -44.3671875 64.984375 C-40.60676035 64.73199734 -37.54550464 64.30156785 -34 63 C-30.9560176 59.37263578 -29.56326764 55.43007506 -28 51 C-25.00298855 42.89656319 -21.23431931 35.2845104 -17.25 27.625 C-16.66734375 26.48289063 -16.0846875 25.34078125 -15.484375 24.1640625 C-6.14961675 6.14961675 -6.14961675 6.14961675 0 0 Z " fill="#F4F4F4" transform="translate(450,193)"/>
<path d="M0 0 C3.0625 1.0625 3.0625 1.0625 5.4375 3.5 C10.22711582 14.00031161 5.33063191 26.86175739 1.625 37.1796875 C-0.12575301 41.84998777 -2.02154477 46.45798627 -3.9375 51.0625 C-4.36015137 52.0829541 -4.78280273 53.1034082 -5.21826172 54.15478516 C-10.51708144 66.91232085 -15.82643309 79.66862659 -21.9375 92.0625 C-22.24220215 92.69188477 -22.5469043 93.32126953 -22.86083984 93.96972656 C-26.76615267 101.97829003 -30.70095175 108.60652658 -37.15234375 114.9140625 C-40.91248832 119.43940061 -40.06102639 125.27465524 -40 130.875 C-39.99548828 131.66326172 -39.99097656 132.45152344 -39.98632812 133.26367188 C-39.97461312 135.19664761 -39.95667998 137.12958393 -39.9375 139.0625 C-39.2775 139.0625 -38.6175 139.0625 -37.9375 139.0625 C-37.9375 139.7225 -37.9375 140.3825 -37.9375 141.0625 C-24.30122073 136.93775638 -14.13679545 126.54689157 -3.9375 117.0625 C-2.46521062 115.72157651 -0.98673209 114.38739225 0.5 113.0625 C1.09683594 112.52625 1.69367187 111.99 2.30859375 111.4375 C4.13653758 110.00445718 5.95464713 109.02608988 8.0625 108.0625 C8.0625 109.0525 8.0625 110.0425 8.0625 111.0625 C7.0725 111.3925 6.0825 111.7225 5.0625 112.0625 C3.36188823 113.69451567 1.70022956 115.36739014 0.0625 117.0625 C-1.86494062 118.84427709 -3.80247981 120.6151926 -5.75 122.375 C-7.21373047 123.69951172 -7.21373047 123.69951172 -8.70703125 125.05078125 C-9.44308594 125.71464844 -10.17914062 126.37851562 -10.9375 127.0625 C-9.6175 127.7225 -8.2975 128.3825 -6.9375 129.0625 C-11.92401895 136.00800854 -19.96225348 142.83244191 -27.9375 146.0625 C-32.54662603 146.50854445 -34.93214643 146.53560756 -39.125 144.5625 C-44.22442352 140.0296791 -47.03023736 135.67462674 -47.8125 128.8125 C-48.2356755 119.80135115 -47.25548422 111.52443977 -44.6875 102.89453125 C-43.88691232 99.87147883 -43.42360225 96.91009148 -43 93.8125 C-41.92049542 86.37784746 -40.02753481 79.26806982 -37.9375 72.0625 C-37.69370605 71.20833496 -37.44991211 70.35416992 -37.19873047 69.47412109 C-30.4238661 45.86801796 -22.67886329 21.65980628 -5.9375 3.0625 C-5.17373047 2.19238281 -5.17373047 2.19238281 -4.39453125 1.3046875 C-2.9375 0.0625 -2.9375 0.0625 0 0 Z " fill="#E8E8E8" transform="translate(523.9375,131.9375)"/>
<path d="M0 0 C1.32 0.33 2.64 0.66 4 1 C4 10.57 4 20.14 4 30 C5.815 28.453125 7.63 26.90625 9.5 25.3125 C10.68639085 24.31248474 11.87376146 23.31362963 13.0625 22.31640625 C15.80912504 20.01060618 18.53283064 17.68024714 21.25 15.33984375 C22.66601552 14.1424587 24.08267114 12.94583018 25.5 11.75 C26.16966797 11.16516846 26.83933594 10.58033691 27.52929688 9.9777832 C32.33396361 5.96845091 32.33396361 5.96845091 35.96875 6.140625 C36.6390625 6.42421875 37.309375 6.7078125 38 7 C36.9696197 14.76338259 27.39882803 20.77071353 21.6875 25.375 C20.83236816 26.07463867 19.97723633 26.77427734 19.09619141 27.49511719 C17.5347119 28.75838637 15.97161303 30.02120855 14.3625946 31.2233429 C8.23011327 35.81559026 2.70685165 40.11941732 1.28042603 47.97515869 C0.93717948 50.89895506 0.71767257 53.80784328 0.59622192 56.74914551 C0.46401288 59.92769743 0.1978276 63.09128625 -0.05967712 66.26174927 C-0.18889237 67.86773779 -0.31153155 69.47426932 -0.42750549 71.08126831 C-1.68256885 88.12550922 -5.39061586 104.8818962 -11 121 C-11.36609375 122.23234375 -11.7321875 123.4646875 -12.109375 124.734375 C-16.49366929 139.20855205 -24.20077213 156.75628717 -37.9375 164.5625 C-43.94750944 167.06467525 -49.5939777 167.88220818 -55.75 165.625 C-60.02627898 162.71027211 -62.49365721 158.42787226 -65 154 C-65.61875 152.9275 -66.2375 151.855 -66.875 150.75 C-72.19430992 133.01896694 -61.50685922 114.26830258 -53.36328125 98.9140625 C-51.97249018 96.55924364 -50.51692254 94.27538382 -49 92 C-48.39671875 91.06414062 -47.7934375 90.12828125 -47.171875 89.1640625 C-37.6639182 74.6026641 -26.72932139 61.52001328 -15.1875 48.5625 C-14.47980469 47.76714844 -13.77210938 46.97179687 -13.04296875 46.15234375 C-11 44 -11 44 -8.92578125 42.25390625 C-4.92653906 38.87118009 -3.56291631 36.59771879 -3.0625 31.3125 C-3.00399679 29.20904362 -2.98469662 27.10421415 -3 25 C-2.98710938 23.86433594 -2.97421875 22.72867187 -2.9609375 21.55859375 C-2.9407169 18.70411888 -2.95445639 15.85406625 -3 13 C-4.14628335 13.99948412 -5.29198853 14.99963131 -6.4375 16 C-7.16324219 16.63292969 -7.88898437 17.26585937 -8.63671875 17.91796875 C-10.2336531 19.32485472 -11.81939123 20.74453656 -13.39453125 22.17578125 C-14.17183594 22.88089844 -14.94914063 23.58601563 -15.75 24.3125 C-16.46671875 24.96863281 -17.1834375 25.62476563 -17.921875 26.30078125 C-20.80272211 28.65636112 -22.79365442 30.05884613 -26.5625 29.875 C-29.72475722 28.73983074 -30.55030646 28.0519864 -32 25 C-33.29408731 17.55110717 -30.60804281 10.88104153 -28 4 C-26.68 4 -25.36 4 -24 4 C-22.08319426 7.83361148 -22.49885959 12.28097186 -23.671875 16.3046875 C-24.39574442 18.22362436 -25.19209989 20.11489973 -26 22 C-18.31496919 16.31483809 -11.04927893 10.48045232 -4.31567383 3.67285156 C-2.77734375 2.17578125 -2.77734375 2.17578125 0 0 Z M-5 48 C-11.01992298 54.17519877 -16.55122771 60.78261811 -21.9609375 67.4921875 C-24.14530268 70.17870559 -26.40165098 72.78780898 -28.7109375 75.3671875 C-30.36104753 77.45732688 -31.63322063 79.71523449 -33 82 C-34.85682868 84.59148698 -36.76281659 87.14214088 -38.671875 89.6953125 C-44.91674148 98.42446625 -49.73150815 107.25842956 -53.8125 117.1875 C-54.28880859 118.31091797 -54.76511719 119.43433594 -55.25585938 120.59179688 C-58.27402134 127.82095275 -60.87046468 134.76230086 -61.5625 142.625 C-61.80426875 145.27989458 -62.1466769 147.63559992 -62.75 150.25 C-63.07573497 153.83308464 -62.23265657 155.22842633 -60 158 C-55.54132116 160.76380308 -51.08622198 160.50214293 -46 160 C-36.14304357 156.64863481 -29.67646542 147.88528429 -25 139 C-24.64679687 137.91847656 -24.29359375 136.83695312 -23.9296875 135.72265625 C-23 133 -23 133 -21 132 C-20.22527046 130.06236585 -20.22527046 130.06236585 -19.625 127.6875 C-18.59116809 123.99672009 -17.43453435 120.41371945 -16.125 116.8125 C-13.13930807 107.96981854 -11.45471435 98.7759774 -9.55957031 89.65234375 C-9.09046518 87.42880178 -8.59986664 85.21349163 -8.0859375 83 C-6.65015642 76.73477348 -5.58345278 70.50143638 -4.8125 64.125 C-4.68645386 63.08980225 -4.68645386 63.08980225 -4.55786133 62.03369141 C-4.03371034 57.33163201 -3.93120861 52.73073102 -4 48 C-4.33 48 -4.66 48 -5 48 Z " fill="#F5F5F5" transform="translate(565,235)"/>
<path d="M0 0 C6.95500195 0.06087529 13.73484504 1.59409634 19.375 5.75 C23.01305432 10.78730598 23.8265524 16.93541207 23 23 C21.82837611 27.72215369 20.46035431 32.35815951 19 37 C23.24026083 28.35923244 23.24026083 28.35923244 25 19 C25.66 19.33 26.32 19.66 27 20 C27.44044657 28.36848475 25.03169639 34.34517575 20 41 C19.34 41 18.68 41 18 41 C18 42.65 18 44.3 18 46 C17.01 46 16.02 46 15 46 C15 46.99 15 47.98 15 49 C14.4225 49.061875 13.845 49.12375 13.25 49.1875 C10.11210874 50.3206274 9.06855345 52.3995328 7 55 C3.75870403 57.92429881 1.07543546 59.79318549 -3.25 60.625 C-6 60 -6 60 -7.8125 58.1875 C-10.8937535 49.91676692 -11.21437557 38.58070533 -9 30 C-8.67 30 -8.34 30 -8 30 C-7.49095343 28.12743583 -6.99317545 26.25180659 -6.5 24.375 C-6.2215625 23.33085937 -5.943125 22.28671875 -5.65625 21.2109375 C-4.88751937 18.02185058 -4.88751937 18.02185058 -5.03125 14.7890625 C-5 12 -5 12 -3 9 C-2.37414968 6.98695552 -2.37414968 6.98695552 -1.9375 4.875 C-1 1 -1 1 0 0 Z " fill="#242424" transform="translate(418,268)"/>
<path d="M0 0 C-1.47692308 4.67692308 -1.47692308 4.67692308 -4.125 6.3125 C-5.053125 6.6528125 -5.053125 6.6528125 -6 7 C-5.60167969 7.81791016 -5.60167969 7.81791016 -5.1953125 8.65234375 C-5 11 -5 11 -6.9921875 13.62890625 C-7.9419522 14.61762615 -8.9037552 15.5948722 -9.875 16.5625 C-10.89559081 17.62534143 -11.91377822 18.69049537 -12.9296875 19.7578125 C-13.44499023 20.29567383 -13.96029297 20.83353516 -14.49121094 21.38769531 C-19.58404759 26.82994341 -24.19910593 32.58849184 -28 39 C-29.85682868 41.59148698 -31.76281659 44.14214088 -33.671875 46.6953125 C-39.91674148 55.42446625 -44.73150815 64.25842956 -48.8125 74.1875 C-49.28880859 75.31091797 -49.76511719 76.43433594 -50.25585938 77.59179688 C-53.27402134 84.82095275 -55.87046468 91.76230086 -56.5625 99.625 C-56.80426875 102.27989458 -57.1466769 104.63559992 -57.75 107.25 C-58.07295649 110.80252136 -57.20077008 112.2490374 -55 115 C-49.6611019 116.7796327 -44.11713294 116.74722339 -38.8125 114.875 C-31.06417784 109.70945189 -26.72170087 104.04568431 -22 96 C-21.58492187 95.33355469 -21.16984375 94.66710937 -20.7421875 93.98046875 C-18.35771674 90.06817043 -17.07934952 86.40734387 -16 82 C-15.34 82 -14.68 82 -14 82 C-13.01 79.36 -12.02 76.72 -11 74 C-9.96896311 78.12414757 -10.05298316 78.9841142 -11.4375 82.75 C-11.72496094 83.54921875 -12.01242187 84.3484375 -12.30859375 85.171875 C-12.53675781 85.77515625 -12.76492188 86.3784375 -13 87 C-12.34 86.67 -11.68 86.34 -11 86 C-11.47960087 91.77769173 -13.10344261 95.82348068 -16 100.8125 C-16.40081787 101.50956055 -16.80163574 102.20662109 -17.21459961 102.92480469 C-22.2083089 111.35394414 -28.17594309 120.09660772 -38 123 C-43.11797055 124.21894882 -46.76196032 124.45394788 -51.75 122.625 C-56.02627898 119.71027211 -58.49365721 115.42787226 -61 111 C-61.61875 109.9275 -62.2375 108.855 -62.875 107.75 C-68.19430992 90.01896694 -57.50685922 71.26830258 -49.36328125 55.9140625 C-47.97249018 53.55924364 -46.51692254 51.27538382 -45 49 C-44.39671875 48.06414062 -43.7934375 47.12828125 -43.171875 46.1640625 C-34.10082875 32.27179088 -23.95349884 18.58438842 -12 7 C-11.505 7.99 -11.505 7.99 -11 9 C-11.33 9.66 -11.66 10.32 -12 11 C-11.34 11 -10.68 11 -10 11 C-9.7525 10.4225 -9.505 9.845 -9.25 9.25 C-7.83316683 6.6997003 -6.12372463 4.98214299 -4 3 C-4.495 2.01 -4.495 2.01 -5 1 C-3 0 -3 0 0 0 Z " fill="#F2F2F2" transform="translate(561,278)"/>
<path d="M0 0 C0.33 0 0.66 0 1 0 C1.84438254 8.11828037 -1.1915785 14.70760746 -4.1875 22.125 C-4.73005479 23.49272913 -5.27211989 24.8606526 -5.8137207 26.22875977 C-7.51347829 30.49784689 -9.24975983 34.75138978 -11 39 C-11.28198242 39.68467346 -11.56396484 40.36934692 -11.85449219 41.07476807 C-28.52268756 81.42408524 -28.52268756 81.42408524 -40.25 92.88671875 C-43.97900083 97.3898202 -43.12313696 103.24789241 -43.0625 108.8125 C-43.05798828 109.60076172 -43.05347656 110.38902344 -43.04882812 111.20117188 C-43.03711312 113.13414761 -43.01917998 115.06708393 -43 117 C-42.34 117 -41.68 117 -41 117 C-41 117.66 -41 118.32 -41 119 C-27.36372073 114.87525638 -17.19929545 104.48439157 -7 95 C-5.52771062 93.65907651 -4.04923209 92.32489225 -2.5625 91 C-1.96566406 90.46375 -1.36882813 89.9275 -0.75390625 89.375 C1.07403758 87.94195718 2.89214713 86.96358988 5 86 C5 86.99 5 87.98 5 89 C4.01 89.33 3.02 89.66 2 90 C0.29938823 91.63201567 -1.36227044 93.30489014 -3 95 C-4.92744062 96.78177709 -6.86497981 98.5526926 -8.8125 100.3125 C-10.27623047 101.63701172 -10.27623047 101.63701172 -11.76953125 102.98828125 C-12.50558594 103.65214844 -13.24164062 104.31601562 -14 105 C-12.68 105.66 -11.36 106.32 -10 107 C-14.98651895 113.94550854 -23.02475348 120.76994191 -31 124 C-35.60912603 124.44604445 -37.99464643 124.47310756 -42.1875 122.5 C-47.28692352 117.9671791 -50.09273736 113.61212674 -50.875 106.75 C-51.29756936 97.75175824 -50.33545955 89.4695239 -47.75 80.85546875 C-46.92200357 77.70304483 -46.48279723 74.60603492 -46.0625 71.375 C-45.27017891 65.70685682 -43.68248796 61.03943127 -41 56 C-39.68 56 -38.36 56 -37 56 C-36.67 55.34 -36.34 54.68 -36 54 C-36.62872588 59.55374525 -37.52406985 64.99889702 -38.59765625 70.484375 C-39.10528713 73.23370066 -39.10528713 73.23370066 -39 77 C-36.36 72.38 -33.72 67.76 -31 63 C-30.34 63.33 -29.68 63.66 -29 64 C-26.65712582 61.32752366 -26.65712582 61.32752366 -26 58 C-25.34 58 -24.68 58 -24 58 C-24 57.01 -24 56.02 -24 55 C-23.34 55 -22.68 55 -22 55 C-21.90460938 54.48695313 -21.80921875 53.97390625 -21.7109375 53.4453125 C-20.73066967 50.07362206 -19.15985361 47.02008832 -17.625 43.875 C-14.83151939 38.04416914 -12.55566653 32.29674549 -11 26 C-10.34 26 -9.68 26 -9 26 C-8.82984375 25.35675781 -8.6596875 24.71351563 -8.484375 24.05078125 C-7.03837357 18.65904189 -5.52845272 13.28834474 -3.9375 7.9375 C-3.61652344 6.85339844 -3.29554688 5.76929688 -2.96484375 4.65234375 C-2 2 -2 2 0 0 Z " fill="#F5F5F5" transform="translate(527,154)"/>
<path d="M0 0 C0.99 0 1.98 0 3 0 C2.84166187 6.6645957 1.68425054 12.82119652 -0.1875 19.1875 C-0.37143311 19.82034912 -0.55536621 20.45319824 -0.74487305 21.10522461 C-4.74943189 34.22371746 -10.07087495 46.83664943 -15.79418945 59.28173828 C-16.81017873 61.49494341 -17.81272962 63.71390167 -18.81445312 65.93359375 C-23.36779187 75.93314765 -28.46923756 85.50813522 -34 95 C-34.33 95 -34.66 95 -35 95 C-34.69737871 92.3268453 -34.36420704 89.66513858 -34 87 C-33.90074219 86.26007813 -33.80148437 85.52015625 -33.69921875 84.7578125 C-30.66812682 65.59151404 -24.41794074 44.44462071 -15.12109375 27.375 C-13.22137161 23.35050154 -12.14710898 19.07267449 -10.9921875 14.78515625 C-9.99885767 11.99679339 -9.1907457 10.89120675 -7 9 C-5.82425289 6.90010348 -5.82425289 6.90010348 -5 5 C-4.34 5 -3.68 5 -3 5 C-2.690625 4.360625 -2.38125 3.72125 -2.0625 3.0625 C-1 1 -1 1 0 0 Z " fill="#2F2F2F" transform="translate(522,137)"/>
<path d="M0 0 C3.0078375 1.45378812 5.46388008 2.92776015 7 6 C7.23076923 11.53846154 7.23076923 11.53846154 6 14 C6.60473145 13.79318604 7.20946289 13.58637207 7.83251953 13.37329102 C10.59506641 12.43154973 13.35998623 11.49697225 16.125 10.5625 C17.07632813 10.23701172 18.02765625 9.91152344 19.0078125 9.57617188 C23.65674181 8.01038666 28.10457679 6.58514318 33 6 C32.875 7.8125 32.875 7.8125 32 10 C29.25 11.5625 29.25 11.5625 26 13 C25.236875 13.53625 24.47375 14.0725 23.6875 14.625 C19.90633767 16.55954817 16.19553841 16.73492241 12 17 C12 17.66 12 18.32 12 19 C11.14728516 19.02513672 11.14728516 19.02513672 10.27734375 19.05078125 C7.5269466 19.35842167 5.51264108 19.80790032 3 21 C0.88704348 23.65180286 -0.70608973 26.40763911 -2.3828125 29.3515625 C-4.57664498 32.94436062 -6.14051418 34.35766561 -10 36 C-13.125 36.0625 -13.125 36.0625 -16 35 C-20.221243 30.66466935 -21.29320427 27.09748617 -21.2265625 21.06640625 C-20.77303972 16.92996572 -18.88768006 13.88768006 -16 11 C-15.9175 9.906875 -15.835 8.81375 -15.75 7.6875 C-14.9710697 3.85775936 -14.05813646 2.13489266 -10.875 -0.18359375 C-7.19629738 -1.78536218 -3.74787248 -1.12436174 0 0 Z " fill="#F3F3F3" transform="translate(622,235)"/>
<path d="M0 0 C4.09023154 1.63609261 7.349838 3.43247423 10 7 C10.31452272 10.14522722 10.42041821 12.15916359 9 15 C9.60996826 14.79318604 10.21993652 14.58637207 10.84838867 14.37329102 C13.62702611 13.43317435 16.40723641 12.49779605 19.1875 11.5625 C20.14720703 11.23701172 21.10691406 10.91152344 22.09570312 10.57617188 C23.02705078 10.26357422 23.95839844 9.95097656 24.91796875 9.62890625 C26.19837036 9.1968689 26.19837036 9.1968689 27.50463867 8.75610352 C29.98810913 8.00360298 32.4485968 7.46552619 35 7 C35.495 8.485 35.495 8.485 36 10 C30.7265625 13.22265625 30.7265625 13.22265625 29 14 C28.34 13.67 27.68 13.34 27 13 C27 13.66 27 14.32 27 15 C19.71428571 18.42857143 19.71428571 18.42857143 15 18 C15 18.66 15 19.32 15 20 C14.14728516 20.02513672 14.14728516 20.02513672 13.27734375 20.05078125 C9.0474441 20.52390859 6.7426781 21.08748466 3.984375 24.4765625 C2.80941065 26.41269941 1.68046021 28.37771453 0.60546875 30.37109375 C-1.82978391 34.35874592 -4.00852572 35.69354431 -8.4375 37.0625 C-12 37 -12 37 -14.875 34.25 C-17.92416919 29.58656476 -18.74977632 25.50160548 -18 20 C-16.90431381 17.1818377 -15.54615488 14.59533141 -14 12 C-13.34 12 -12.68 12 -12 12 C-12.12375 10.948125 -12.2475 9.89625 -12.375 8.8125 C-12 5 -12 5 -9.375 2.0625 C-5.67148717 -0.20075784 -4.23104963 -0.70517494 0 0 Z " fill="#F2F2F2" transform="translate(383,234)"/>
<path d="M0 0 C2.31 0.33 4.62 0.66 7 1 C7.00386719 2.63195312 7.00386719 2.63195312 7.0078125 4.296875 C7.26207814 17.32538699 10.38121714 27.67823419 20 37 C23.51423591 40.26656595 27.00422254 43.33614836 31 46 C31 46.66 31 47.32 31 48 C29.92363281 48.35191406 28.84726562 48.70382813 27.73828125 49.06640625 C11.2461324 54.58906743 -2.34327432 60.19073147 -11 76 C-14.96 75.505 -14.96 75.505 -19 75 C-11.23230462 58.22275199 3.67343164 51.23137006 20 45 C18.89978516 43.90365234 18.89978516 43.90365234 17.77734375 42.78515625 C-0.18368677 24.77360243 -0.18368677 24.77360243 -0.40209961 10.74023438 C-0.36303648 7.1506497 -0.21500955 3.58349251 0 0 Z " fill="#F4F4F4" transform="translate(261,206)"/>
<path d="M0 0 C18.52311386 4.01403822 29.08188659 16.0441147 39 31 C39.58007812 29.99839844 40.16015625 28.99679687 40.7578125 27.96484375 C48.78324372 14.23971852 55.67524378 5.04711997 71.67578125 0.4453125 C74.16801307 -0.03219074 76.46840793 -0.08065249 79 0 C79 2.64 79 5.28 79 8 C78.24976563 8.07476562 77.49953125 8.14953125 76.7265625 8.2265625 C69.85816277 9.108901 64.92457236 10.71695176 59.15625 14.5625 C57 16 57 16 54.84375 16.9375 C52.45679475 18.31303353 52.10072794 19.48775034 51 22 C49.01916442 25.25513108 46.99557876 28.48182381 44.97265625 31.7109375 C43.1513891 34.74758491 41.53640223 37.81160415 40 41 C36.57161606 37.89302705 33.92644817 34.59164481 31.25 30.8125 C22.53249279 18.71573437 14.89947156 11.03507754 0 8 C0 5.36 0 2.72 0 0 Z " fill="#F3F3F3" transform="translate(215,282)"/>
<path d="M0 0 C0.04898438 1.14855469 0.09796875 2.29710937 0.1484375 3.48046875 C0.83547074 26.87780313 0.83547074 26.87780313 12.70703125 46.17578125 C14 48 14 48 13.82421875 50.04296875 C13 52 13 52 11 55 C5.38980679 53.1299356 2.73873151 46.07129522 0 41 C-3.97477969 32.68909701 -5.16320458 25.26587727 -5.0625 16.125 C-5.05798828 15.34125 -5.05347656 14.5575 -5.04882812 13.75 C-5.03714093 11.83329986 -5.01920908 9.91663952 -5 8 C-6.09699219 8.55429688 -7.19398438 9.10859375 -8.32421875 9.6796875 C-9.77859187 10.41156558 -11.23302196 11.14333045 -12.6875 11.875 C-13.40873047 12.23980469 -14.12996094 12.60460937 -14.87304688 12.98046875 C-16.90806994 14.00262645 -18.95203206 15.00409408 -21 16 C-21.81726563 16.40734375 -22.63453125 16.8146875 -23.4765625 17.234375 C-27.20889811 18.36678642 -30.80592263 18.38265121 -34.6875 18.375 C-35.48534912 18.37411377 -36.28319824 18.37322754 -37.10522461 18.37231445 C-43.14143444 18.25147985 -48.93158039 17.58264176 -54 14 C-54.33 13.01 -54.66 12.02 -55 11 C-53.68 9.68 -52.36 8.36 -51 7 C-50.17822266 7.433125 -50.17822266 7.433125 -49.33984375 7.875 C-40.68442031 11.92827147 -31.79379163 12.53499553 -22.53515625 10.08203125 C-16.08089572 7.71060853 -10.08278471 4.58838292 -4.14453125 1.13671875 C-2 0 -2 0 0 0 Z " fill="#F5F5F5" transform="translate(238,201)"/>
<path d="M0 0 C1.02302923 19.4375554 -6.86365767 32.99296781 -18 48 C-16.7728125 47.98324219 -15.545625 47.96648437 -14.28125 47.94921875 C-2.64882189 47.95689861 8.14051253 52.26363258 16.5625 60.25 C25 68.93125 25 68.93125 25 74 C21.535 74.99 21.535 74.99 18 76 C17.6596875 75.35933594 17.319375 74.71867187 16.96875 74.05859375 C11.43547227 64.18404759 5.52973682 58.89267992 -5.19140625 55.06640625 C-12.34375327 53.06374908 -19.65189919 52.01438429 -27 51 C-25.72630464 48.32977299 -24.33605182 45.93158728 -22.609375 43.53125 C-12.72371608 29.61752291 -7.04094645 19.27940329 -7 2 C-2.25 0 -2.25 0 0 0 Z " fill="#F4F4F4" transform="translate(207,258)"/>
<path d="M0 0 C2.54242904 0.62201946 5.08391875 1.24751759 7.625 1.875 C8.69427734 2.13603516 8.69427734 2.13603516 9.78515625 2.40234375 C12.92788451 3.18081772 15.9631374 3.98682114 19.015625 5.078125 C22.69760123 6.21548938 26.29996002 6.62604825 30.125 6.875 C30.86766113 6.92398438 31.61032227 6.97296875 32.37548828 7.0234375 C38.34993259 7.27070918 43.14323139 6.15662627 48.6796875 3.8125 C51 3 51 3 54 4 C55.1875 6.5625 55.1875 6.5625 56 9 C54.80375 9.474375 53.6075 9.94875 52.375 10.4375 C51.36566406 10.83775391 51.36566406 10.83775391 50.3359375 11.24609375 C35.98597642 15.8774357 20.68667275 13.28588741 7 8 C7.2475 9.670625 7.2475 9.670625 7.5 11.375 C9.17807588 27.17896838 8.95716843 39.37413292 -1.31640625 52.1875 C-3 54 -3 54 -6 56 C-7.32 54.35 -8.64 52.7 -10 51 C-9.113125 50.071875 -8.22625 49.14375 -7.3125 48.1875 C1.21772149 38.28274045 2.53129135 27.56565827 2 15 C1.52371339 9.97407536 0.78221834 4.98664192 0 0 Z " fill="#F6F6F6" transform="translate(170,234)"/>
<path d="M0 0 C3.82825694 0.0274427 3.82825694 0.0274427 6.125 1.75 C6.62 2.4925 6.62 2.4925 7.125 3.25 C6.114375 3.641875 5.10375 4.03375 4.0625 4.4375 C1.19736221 5.64877776 -1.18758592 7.08882404 -3.6875 8.9375 C-6.875 11.25 -6.875 11.25 -8.875 11.25 C-9.11863281 11.78753906 -9.36226563 12.32507813 -9.61328125 12.87890625 C-11.19090434 15.84366543 -13.10337251 18.45955828 -15.0625 21.1875 C-19.0375813 26.79809862 -22.33073066 32.54051833 -25.46484375 38.66796875 C-26.875 41.25 -26.875 41.25 -28.875 43.25 C-30.875 43.0625 -30.875 43.0625 -32.875 42.25 C-36.58893455 36.67909818 -35.60708901 28.49778642 -34.48974609 22.01464844 C-32.0589262 10.61785239 -32.0589262 10.61785239 -29.875 6.25 C-26 8.125 -26 8.125 -24.875 9.25 C-24.80294489 10.93608966 -24.79113932 12.62500659 -24.8125 14.3125 C-24.82152344 15.23160156 -24.83054687 16.15070313 -24.83984375 17.09765625 C-24.85144531 17.80792969 -24.86304688 18.51820313 -24.875 19.25 C-24.02228516 18.16332031 -24.02228516 18.16332031 -23.15234375 17.0546875 C-11.74981988 2.77773775 -11.74981988 2.77773775 -4.875 1.25 C-3.875 0.25 -3.875 0.25 0 0 Z " fill="#F9F9F9" transform="translate(355.875,231.75)"/>
<path d="M0 0 C-1.47692308 4.67692308 -1.47692308 4.67692308 -4.125 6.3125 C-5.053125 6.6528125 -5.053125 6.6528125 -6 7 C-5.60167969 7.81791016 -5.60167969 7.81791016 -5.1953125 8.65234375 C-5 11 -5 11 -6.9921875 13.62890625 C-7.9419522 14.61762615 -8.9037552 15.5948722 -9.875 16.5625 C-10.89559081 17.62534143 -11.91377822 18.69049537 -12.9296875 19.7578125 C-13.44499023 20.29567383 -13.96029297 20.83353516 -14.49121094 21.38769531 C-19.58404759 26.82994341 -24.19910593 32.58849184 -28 39 C-29.23290734 40.72070981 -30.48396636 42.42851493 -31.75 44.125 C-38.48973667 53.36276751 -43.93710045 62.27169843 -48 73 C-48.99 73 -49.98 73 -51 73 C-52.70532323 74.94009522 -52.70532323 74.94009522 -54 77 C-53.44894091 73.0507432 -52.61064629 69.65079826 -51 66 C-52.485 66.495 -52.485 66.495 -54 67 C-47.35408461 45.12655032 -28.35691792 22.85183494 -12 7 C-11.505 7.99 -11.505 7.99 -11 9 C-11.33 9.66 -11.66 10.32 -12 11 C-11.34 11 -10.68 11 -10 11 C-9.7525 10.4225 -9.505 9.845 -9.25 9.25 C-7.83316683 6.6997003 -6.12372463 4.98214299 -4 3 C-4.495 2.01 -4.495 2.01 -5 1 C-3 0 -3 0 0 0 Z " fill="#D8D8D8" transform="translate(561,278)"/>
<path d="M0 0 C0.66 1.32 1.32 2.64 2 4 C3.65 3.34 5.3 2.68 7 2 C6.86722656 2.65226562 6.73445313 3.30453125 6.59765625 3.9765625 C5.44917514 9.65786542 5.44917514 9.65786542 4.5 15.375 C4 18 4 18 2.98046875 19.76953125 C0.21724878 26.05558146 1.58637389 35.35595728 3 42 C3.95584438 44.33588323 3.95584438 44.33588323 5 46 C8.35417348 46.60203114 10.40486071 46.3765167 13.296875 44.546875 C16.226219 42.26849634 19.07400672 40.01287661 21.58203125 37.26953125 C23 36 23 36 26 36 C26 35.01 26 34.02 26 33 C26.66 32.34 27.32 31.68 28 31 C28.33 30.01 28.66 29.02 29 28 C29.99 27.34 30.98 26.68 32 26 C36.26846856 19.85340527 37.37250022 14.32583775 37 7 C36.505 6.505 36.505 6.505 36 6 C35.95936168 4.33382885 35.957279 2.66611905 36 1 C36.99 1.33 37.98 1.66 39 2 C39.64448586 18.56567356 35.30396792 31.80214466 24.7734375 44.734375 C20.48975427 49.13036453 17.30547449 51.780431 11.0625 52.375 C8.10047159 52.27608254 6.94181849 51.96826463 4.25 50.5 C-4.64699761 40.61444711 -3.47161609 28.29689487 -3.15820312 15.80859375 C-2.85064484 10.34848498 -1.67860018 5.20565889 0 0 Z " fill="#F2F2F2" transform="translate(407,281)"/>
<path d="M0 0 C1.2077558 3.62326739 0.54311128 4.64146369 -1 8 C-0.01 7.34 0.98 6.68 2 6 C1.39685357 10.49310204 0.20899126 14.34611437 -1.4375 18.5625 C-3.92720455 25.34281931 -5.12636733 31.85900253 -6 39 C-6.18949219 40.06476563 -6.37898438 41.12953125 -6.57421875 42.2265625 C-6.98696102 44.91506719 -6.87855121 46.46196316 -6 49 C-6.99 49.495 -6.99 49.495 -8 50 C-13.04696496 41.00558745 -14.69364372 33.08087214 -12.265625 22.9296875 C-11.29787472 19.89158623 -10.18869841 16.9582818 -9 14 C-8.59136719 12.89527344 -8.18273437 11.79054688 -7.76171875 10.65234375 C-4.56563792 2.35044958 -4.56563792 2.35044958 -1.84375 0.6640625 C-0.93109375 0.33535156 -0.93109375 0.33535156 0 0 Z " fill="#F2F2F2" transform="translate(510,343)"/>
<path d="M0 0 C0.66 0 1.32 0 2 0 C1.67 3.3 1.34 6.6 1 10 C0.34 10 -0.32 10 -1 10 C-1.08636719 10.67804688 -1.17273438 11.35609375 -1.26171875 12.0546875 C-2.18966106 18.20124113 -3.76703521 22.96930919 -6.71875 28.41796875 C-8.07559627 31.15234492 -8.97891379 33.83385736 -9.875 36.75 C-12.12922336 43.90389892 -15.5161478 50.38459525 -19 57 C-19.66 57 -20.32 57 -21 57 C-21 57.99 -21 58.98 -21 60 C-21.66 60 -22.32 60 -23 60 C-22.67 60.99 -22.34 61.98 -22 63 C-23.65 64.32 -25.3 65.64 -27 67 C-28.31878477 63.04364568 -27.32907907 61.98858 -25.53515625 58.28515625 C-24.98585449 57.13313721 -24.43655273 55.98111816 -23.87060547 54.79418945 C-23.57522888 54.18499664 -23.27985229 53.57580383 -22.9755249 52.94815063 C-21.44334924 49.78378128 -19.94558036 46.60330228 -18.44921875 43.421875 C-18.15057922 42.78784256 -17.8519397 42.15381012 -17.54425049 41.50056458 C-14.97196224 36.00760019 -12.60656073 30.45142539 -10.375 24.8125 C-10.06957275 24.04365479 -9.76414551 23.27480957 -9.44946289 22.48266602 C-7.45770807 17.37798481 -5.68903333 12.21207151 -4 7 C-3.01 7.33 -2.02 7.66 -1 8 C-0.67 5.36 -0.34 2.72 0 0 Z " fill="#CFCFCF" transform="translate(524,152)"/>
<path d="M0 0 C-1.47692308 4.67692308 -1.47692308 4.67692308 -4.125 6.3125 C-4.74375 6.539375 -5.3625 6.76625 -6 7 C-5.73445312 7.54527344 -5.46890625 8.09054687 -5.1953125 8.65234375 C-5 11 -5 11 -6.9921875 13.62890625 C-7.94187143 14.61770373 -8.90367626 15.59495144 -9.875 16.5625 C-10.89437255 17.62265402 -11.91125536 18.68520699 -12.92578125 19.75 C-13.44092285 20.28753906 -13.95606445 20.82507813 -14.48681641 21.37890625 C-19.02955608 26.2456038 -23.3085778 31.4628667 -27 37 C-27.825 37.474375 -28.65 37.94875 -29.5 38.4375 C-32.15726223 40.09828889 -32.90985696 41.12598653 -34 44 C-34.66 44 -35.32 44 -36 44 C-34.13559722 38.39649109 -30.50042624 34.44842017 -26.80078125 29.9375 C-24.65193056 27.19744687 -24.65193056 27.19744687 -25.55859375 24.5078125 C-25.70425781 23.68023437 -25.84992187 22.85265625 -26 22 C-24.31341244 19.69738933 -22.74929868 17.8643766 -20.75 15.875 C-19.99396484 15.08802734 -19.99396484 15.08802734 -19.22265625 14.28515625 C-17.83045839 12.84180152 -16.41598274 11.4200284 -15 10 C-14.38640625 9.38382812 -13.7728125 8.76765625 -13.140625 8.1328125 C-12.76421875 7.75898438 -12.3878125 7.38515625 -12 7 C-11.67 7.66 -11.34 8.32 -11 9 C-11.33 9.66 -11.66 10.32 -12 11 C-11.34 11 -10.68 11 -10 11 C-9.7525 10.4225 -9.505 9.845 -9.25 9.25 C-7.83316683 6.6997003 -6.12372463 4.98214299 -4 3 C-4.33 2.34 -4.66 1.68 -5 1 C-3 0 -3 0 0 0 Z " fill="#B9B9B9" transform="translate(561,278)"/>
<path d="M0 0 C0.66 1.32 1.32 2.64 2 4 C3.65 3.34 5.3 2.68 7 2 C6.86722656 2.65226562 6.73445313 3.30453125 6.59765625 3.9765625 C5.44917514 9.65786542 5.44917514 9.65786542 4.5 15.375 C4 18 4 18 2.97265625 19.796875 C1.72264377 22.62822856 1.83945138 24.79235124 1.9375 27.875 C2.01419569 32.05747148 1.91266335 35.89301491 1 40 C0.01 40 -0.98 40 -2 40 C-5.51499175 27.81199505 -3.84444392 11.92235287 0 0 Z " fill="#F5F5F5" transform="translate(407,281)"/>
<path d="M0 0 C0.80050781 0.38285156 0.80050781 0.38285156 1.6171875 0.7734375 C0.05399163 4.7415501 -2.7035936 7.18975828 -5.8203125 9.9609375 C-6.34874756 10.43708496 -6.87718262 10.91323242 -7.42163086 11.40380859 C-21.77274288 24.23674763 -21.77274288 24.23674763 -26.3828125 25.7734375 C-26.7128125 26.7634375 -27.0428125 27.7534375 -27.3828125 28.7734375 C-28.3728125 29.1034375 -29.3628125 29.4334375 -30.3828125 29.7734375 C-30.3828125 28.1234375 -30.3828125 26.4734375 -30.3828125 24.7734375 C-29.0628125 24.4434375 -27.7428125 24.1134375 -26.3828125 23.7734375 C-26.30546875 23.03480469 -26.228125 22.29617188 -26.1484375 21.53515625 C-24.66367552 16.17940767 -19.53920075 13.18723196 -15.3828125 9.7734375 C-14.55088379 9.07951904 -14.55088379 9.07951904 -13.70214844 8.37158203 C-11.98413564 6.94635733 -10.24992833 5.54405926 -8.5078125 4.1484375 C-7.96092773 3.69831299 -7.41404297 3.24818848 -6.85058594 2.78442383 C-2.92795354 -0.27839558 -2.92795354 -0.27839558 0 0 Z " fill="#D9D9D9" transform="translate(598.3828125,243.2265625)"/>
<path d="M0 0 C-0.99 0.33 -1.98 0.66 -3 1 C-3 2.65 -3 4.3 -3 6 C-12.57967167 9.68921887 -22.1378162 13.12915883 -32 16 C-32 15.34 -32 14.68 -32 14 C-33.65 13.67 -35.3 13.34 -37 13 C-36.67 12.34 -36.34 11.68 -36 11 C-35.34 11.33 -34.68 11.66 -34 12 C-34 11.34 -34 10.68 -34 10 C-32.9275 9.87625 -31.855 9.7525 -30.75 9.625 C-27.20460221 9.23086473 -27.20460221 9.23086473 -25.0625 8 C-21.83281041 6.43408989 -18.55779191 6.35577919 -15 6 C-15 5.01 -15 4.02 -15 3 C-13.06643218 2.30151736 -11.12797702 1.61655186 -9.1875 0.9375 C-8.10855469 0.55464844 -7.02960938 0.17179688 -5.91796875 -0.22265625 C-3 -1 -3 -1 0 0 Z " fill="#C3C3C3" transform="translate(475,239)"/>
<path d="M0 0 C3.82825694 0.0274427 3.82825694 0.0274427 6.125 1.75 C6.455 2.245 6.785 2.74 7.125 3.25 C5.6090625 3.8378125 5.6090625 3.8378125 4.0625 4.4375 C1.20376454 5.64361962 -1.14507278 7.07623266 -3.625 8.9375 C-6.875 11.25 -6.875 11.25 -9.875 11.25 C-9.875 8.25 -9.875 8.25 -7.875 6.25 C-13.76566214 11.00843097 -18.43033227 16.12469229 -22.875 22.25 C-23.5234375 20.484375 -23.5234375 20.484375 -23.875 18.25 C-20.79751776 11.88094979 -14.50548691 6.35513682 -8.875 2.25 C-6.6640625 1.58984375 -6.6640625 1.58984375 -4.875 1.25 C-3.875 0.25 -3.875 0.25 0 0 Z " fill="#D9D9D9" transform="translate(355.875,231.75)"/>
<path d="M0 0 C0.99 0.33 1.98 0.66 3 1 C2.43116017 5.0841127 1.52141737 8.59660629 -0.06640625 12.3984375 C-0.46923828 13.37167969 -0.87207031 14.34492188 -1.28710938 15.34765625 C-1.70798828 16.34667969 -2.12886719 17.34570312 -2.5625 18.375 C-2.98724609 19.39722656 -3.41199219 20.41945312 -3.84960938 21.47265625 C-4.89412119 23.98417905 -5.94439049 26.49312619 -7 29 C-9.79262967 26.60631743 -9.98103758 26.18962422 -10.375 22.25 C-10.19221519 17.52370698 -9.01486282 12.9719934 -5.53125 9.5625 C-3.78202562 7.77757716 -2.88262698 6.06345676 -1.8125 3.8125 C-1.46832031 3.09707031 -1.12414062 2.38164062 -0.76953125 1.64453125 C-0.51558594 1.10183594 -0.26164062 0.55914062 0 0 Z " fill="#F0F0F0" transform="translate(504,161)"/>
<path d="M0 0 C0.33 0.99 0.66 1.98 1 3 C-4.2734375 6.22265625 -4.2734375 6.22265625 -6 7 C-6.66 6.67 -7.32 6.34 -8 6 C-8 6.66 -8 7.32 -8 8 C-15.28571429 11.42857143 -15.28571429 11.42857143 -20 11 C-20 11.66 -20 12.32 -20 13 C-21.32 13 -22.64 13 -24 13 C-24.625 11.125 -24.625 11.125 -25 9 C-22.87003887 6.87003887 -21.74587642 6.42848834 -18.9375 5.52734375 C-18.14085937 5.26759766 -17.34421875 5.00785156 -16.5234375 4.74023438 C-15.69070313 4.47533203 -14.85796875 4.21042969 -14 3.9375 C-12.35377147 3.40617082 -10.70791946 2.8736732 -9.0625 2.33984375 C-8.33160156 2.10644287 -7.60070312 1.87304199 -6.84765625 1.63256836 C-2.07912003 0 -2.07912003 0 0 0 Z " fill="#ECECEC" transform="translate(418,241)"/>
<path d="M0 0 C-0.125 1.8125 -0.125 1.8125 -1 4 C-3.75 5.5625 -3.75 5.5625 -7 7 C-7.763125 7.53625 -8.52625 8.0725 -9.3125 8.625 C-13.09366233 10.55954817 -16.80446159 10.73492241 -21 11 C-21 11.66 -21 12.32 -21 13 C-23.31 13.33 -25.62 13.66 -28 14 C-25 12 -25 12 -23 11 C-23 9.68 -23 8.36 -23 7 C-21.79601562 6.57847656 -20.59203125 6.15695313 -19.3515625 5.72265625 C-17.77601743 5.16933983 -16.20049792 4.61595064 -14.625 4.0625 C-13.43390625 3.64581055 -13.43390625 3.64581055 -12.21875 3.22070312 C-11.45820312 2.95322266 -10.69765625 2.68574219 -9.9140625 2.41015625 C-8.8614624 2.04096069 -8.8614624 2.04096069 -7.78759766 1.66430664 C-3.30907755 0 -3.30907755 0 0 0 Z " fill="#D7D7D7" transform="translate(655,241)"/>
<path d="M0 0 C0.66 0.33 1.32 0.66 2 1 C2 1.66 2 2.32 2 3 C1.01 3.33 0.02 3.66 -1 4 C-2.70061177 5.63201567 -4.36227044 7.30489014 -6 9 C-7.92744062 10.78177709 -9.86497981 12.5526926 -11.8125 14.3125 C-12.78832031 15.19550781 -13.76414062 16.07851563 -14.76953125 16.98828125 C-15.87361328 17.98408203 -15.87361328 17.98408203 -17 19 C-15.68 19.66 -14.36 20.32 -13 21 C-16.57729872 25.66132863 -20.10867301 28.73911534 -25 32 C-24.27633685 28.65569263 -23.18284504 26.65737657 -21 24 C-21.66 24 -22.32 24 -23 24 C-23 24.66 -23 25.32 -23 26 C-23.66 25.67 -24.32 25.34 -25 25 C-25 24.01 -25 23.02 -25 22 C-23.0859375 20.1953125 -23.0859375 20.1953125 -20.375 18.125 C-15.47782501 14.26216966 -10.86378402 10.20207061 -6.3125 5.9375 C-5.68843262 5.35307129 -5.06436523 4.76864258 -4.42138672 4.16650391 C-2.94513885 2.78027619 -1.47219768 1.39052832 0 0 Z " fill="#D6D6D6" transform="translate(530,240)"/>
<path d="M0 0 C0.66 0 1.32 0 2 0 C2.35790043 3.26728455 2.26308732 4.63167775 0.3203125 7.3515625 C-0.40414062 8.10179687 -1.12859375 8.85203125 -1.875 9.625 C-4.18243736 12.04822275 -6.13735778 14.20603667 -8 17 C-8.825 17.474375 -9.65 17.94875 -10.5 18.4375 C-13.15726223 20.09828889 -13.90985696 21.12598653 -15 24 C-15.66 24 -16.32 24 -17 24 C-15.12544099 18.40722228 -11.53989156 14.39453314 -7.8984375 9.83984375 C-5.62949646 7.01509593 -5.62949646 7.01509593 -6 3 C-5.38125 2.87625 -4.7625 2.7525 -4.125 2.625 C-1.80879168 2.12802644 -1.80879168 2.12802644 0 0 Z " fill="#C2C2C2" transform="translate(542,298)"/>
<path d="M0 0 C1.32 0.66 2.64 1.32 4 2 C3.53199289 6.05606165 3.12046792 9.46588679 1 13 C-4.75 13.125 -4.75 13.125 -7 12 C-4.6892779 3.64989059 -4.6892779 3.64989059 -1.8125 0.9375 C-1.214375 0.628125 -0.61625 0.31875 0 0 Z " fill="#363636" transform="translate(619,238)"/>
<path d="M0 0 C1.67542976 0.28604898 3.34385343 0.61781233 5 1 C3.85231956 9.64717846 -7.80596018 16.59995606 -14.171875 21.68359375 C-18.95279002 25.59945371 -23.46759576 29.80073186 -28 34 C-28.99 33.67 -29.98 33.34 -31 33 C-30.67 32.01 -30.34 31.02 -30 30 C-29.01 30 -28.02 30 -27 30 C-25.28526615 28.38282859 -23.62785407 26.70459576 -22 25 C-19.79021635 23.01518498 -17.51822002 21.10504738 -15.25 19.1875 C-14.01262844 18.13197024 -12.77564997 17.0759795 -11.5390625 16.01953125 C-10.63849121 15.25116943 -10.63849121 15.25116943 -9.71972656 14.46728516 C-7.34822307 12.44389844 -4.9789445 10.41882165 -2.625 8.375 C-1.91601562 7.76398438 -1.20703125 7.15296875 -0.4765625 6.5234375 C1.2319911 5.11424065 1.2319911 5.11424065 1 3 C0.34 2.34 -0.32 1.68 -1 1 C-0.67 0.67 -0.34 0.34 0 0 Z " fill="#EAEAEA" transform="translate(598,241)"/>
<path d="M0 0 C0.99 0.33 1.98 0.66 3 1 C3.28571429 9.57142857 3.28571429 9.57142857 1 13 C-4.75 13.125 -4.75 13.125 -7 12 C-7 11.01 -7 10.02 -7 9 C-6.34 9 -5.68 9 -5 9 C-5.103125 8.2575 -5.20625 7.515 -5.3125 6.75 C-5 4 -5 4 -2.6875 1.625 C-1.800625 1.08875 -0.91375 0.5525 0 0 Z " fill="#282828" transform="translate(383,238)"/>
<path d="M0 0 C0.99 0.66 1.98 1.32 3 2 C3.1875 5.125 3.1875 5.125 3 8 C3.99 7.67 4.98 7.34 6 7 C5.67 9.31 5.34 11.62 5 14 C4.67 13.34 4.34 12.68 4 12 C0.1044967 14.5970022 -0.16539843 17.31387897 -1.1875 21.625 C-1.36474609 22.33140625 -1.54199219 23.0378125 -1.72460938 23.765625 C-2.16016404 25.50784364 -2.58146251 27.25361516 -3 29 C-5.391049 25.4134265 -5.09122169 24.76888531 -4.3125 20.6875 C-4.01666016 19.10775391 -4.01666016 19.10775391 -3.71484375 17.49609375 C-2.52034195 11.65413141 -1.29170433 5.82128084 0 0 Z " fill="#E1E1E1" transform="translate(555,322)"/>
<path d="M0 0 C2.64 1.32 5.28 2.64 8 4 C6.02069962 7.95860075 4.32913388 10.14645668 1 13 C-0.32 13 -1.64 13 -3 13 C-3.31563182 7.73946963 -2.66590937 4.55426184 0 0 Z " fill="#333333" transform="translate(609,252)"/>
<path d="M0 0 C3.45925163 1.2491742 6.14693203 2.67527795 9 5 C5.04376368 11.70459519 5.04376368 11.70459519 0.6875 12.9375 C-0.199375 12.958125 -1.08625 12.97875 -2 13 C-2.16682272 8.07872966 -2.24828052 4.49656104 0 0 Z " fill="#282828" transform="translate(372,252)"/>
<path d="M0 0 C0.99 0.33 1.98 0.66 3 1 C3.50411363 13.95758731 1.75280714 22.94995195 -5 34 C-6.65 34 -8.3 34 -10 34 C-10 32 -10 32 -8 30 C-7.67 29.01 -7.34 28.02 -7 27 C-6.01 26.34 -5.02 25.68 -4 25 C0.26846856 18.85340527 1.37250022 13.32583775 1 6 C0.67 5.67 0.34 5.34 0 5 C-0.04063832 3.33382885 -0.042721 1.66611905 0 0 Z " fill="#EDEDED" transform="translate(443,282)"/>
<path d="M0 0 C3.45153004 1.15051001 4.63398629 2.46894516 6.32421875 5.66015625 C8.82543231 14.32042748 4.27267725 23.37851791 0.2421875 30.83203125 C-0.37269531 31.90517578 -0.37269531 31.90517578 -1 33 C-2 31 -2 31 -1.22265625 28.2421875 C-0.83980469 27.13101562 -0.45695312 26.01984375 -0.0625 24.875 C2.79581184 15.86488897 2.09746168 9.13894018 0 0 Z " fill="#E6E6E6" transform="translate(438,273)"/>
<path d="M0 0 C0.66 0 1.32 0 2 0 C1.52460869 6.3702436 -0.74186391 11.25735229 -3.5625 16.9375 C-3.98724609 17.81212891 -4.41199219 18.68675781 -4.84960938 19.58789062 C-5.891213 21.72961493 -6.9414422 23.86661853 -8 26 C-8.66 26 -9.32 26 -10 26 C-10 26.99 -10 27.98 -10 29 C-10.66 29 -11.32 29 -12 29 C-11.38080218 24.5995675 -9.73851412 21.23446062 -7.6875 17.3125 C-4.77466161 11.66023315 -2.21388533 5.9678648 0 0 Z " fill="#535353" transform="translate(513,183)"/>
<path d="M0 0 C0.66 0.33 1.32 0.66 2 1 C-17.66847826 19.22282609 -17.66847826 19.22282609 -23 21 C-23.33 21.99 -23.66 22.98 -24 24 C-24.99 24.33 -25.98 24.66 -27 25 C-27 23.35 -27 21.7 -27 20 C-26.40469482 19.8860791 -25.80938965 19.7721582 -25.19604492 19.65478516 C-21.57264722 18.57441244 -19.0785951 15.85278947 -16.3125 13.375 C-15.06779864 12.2822661 -13.82170379 11.19111743 -12.57421875 10.1015625 C-11.96755371 9.57079102 -11.36088867 9.04001953 -10.73583984 8.49316406 C-7.27320111 5.51461294 -3.65051967 2.74271848 0 0 Z " fill="#404040" transform="translate(595,248)"/>
<path d="M0 0 C0.66 0.33 1.32 0.66 2 1 C1.34 1.66 0.68 2.32 0 3 C-0.45375 3.45632812 -0.9075 3.91265625 -1.375 4.3828125 C-2.55237817 5.5545302 -3.7414466 6.71453926 -4.9375 7.8671875 C-9.16893473 11.9864251 -12.72325614 16.08488421 -16 21 C-16.6484375 19.234375 -16.6484375 19.234375 -17 17 C-13.80785811 10.39365418 -6.52821834 3.26410917 0 0 Z " fill="#C4C4C4" transform="translate(349,233)"/>
<path d="M0 0 C0.33 0.99 0.66 1.98 1 3 C-0.1171875 4.76953125 -0.1171875 4.76953125 -1.875 6.8125 C-5.13520279 10.80739638 -8.02685809 14.91924174 -10.8125 19.25 C-11.19712402 19.84014893 -11.58174805 20.43029785 -11.97802734 21.03833008 C-14.03666806 24.25922417 -15.71968178 27.39614129 -17 31 C-17.66 30.67 -18.32 30.34 -19 30 C-18.34 28.02 -17.68 26.04 -17 24 C-16.34 24 -15.68 24 -15 24 C-14.9175 23.46375 -14.835 22.9275 -14.75 22.375 C-13.73812625 19.17073312 -11.87187568 16.77945176 -10 14 C-9.62875 13.071875 -9.2575 12.14375 -8.875 11.1875 C-8 9 -8 9 -6 8 C-4.9935725 6.33720673 -3.99414593 4.67016516 -3 3 C-1.3125 1.1875 -1.3125 1.1875 0 0 Z " fill="#E7E7E7" transform="translate(533,313)"/>
<path d="M0 0 C0.66 1.32 1.32 2.64 2 4 C3.65 3.34 5.3 2.68 7 2 C6.86722656 2.65226562 6.73445313 3.30453125 6.59765625 3.9765625 C5.65517178 8.6408287 4.74231297 13.29868454 4 18 C1.53264116 15.53264116 1.0927616 13.27828479 0 10 C-0.66 10.66 -1.32 11.32 -2 12 C-1 3.42857143 -1 3.42857143 0 0 Z " fill="#AFAFAF" transform="translate(407,281)"/>
<path d="M0 0 C1.92959459 7.71837838 -3.75327507 16.01889975 -7 23 C-7.99 22.01 -8.98 21.02 -10 20 C-9.54625 19.319375 -9.0925 18.63875 -8.625 17.9375 C-6.83163514 14.69564814 -5.91246131 11.5796559 -5 8 C-4.34 8 -3.68 8 -3 8 C-2.01 5.36 -1.02 2.72 0 0 Z " fill="#9E9E9E" transform="translate(550,352)"/>
<path d="M0 0 C-1.47692308 4.67692308 -1.47692308 4.67692308 -4.125 6.3125 C-5.053125 6.6528125 -5.053125 6.6528125 -6 7 C-5.67 8.32 -5.34 9.64 -5 11 C-7.65228812 12.07525194 -10.28368454 13.09456151 -13 14 C-13 13.34 -13 12.68 -13 12 C-13.66 12 -14.32 12 -15 12 C-14.34 10.35 -13.68 8.7 -13 7 C-12.34 7.66 -11.68 8.32 -11 9 C-11.33 9.66 -11.66 10.32 -12 11 C-11.34 11 -10.68 11 -10 11 C-9.7525 10.4225 -9.505 9.845 -9.25 9.25 C-7.83316683 6.6997003 -6.12372463 4.98214299 -4 3 C-4.33 2.34 -4.66 1.68 -5 1 C-3 0 -3 0 0 0 Z " fill="#A8A8A8" transform="translate(561,278)"/>
<path d="M0 0 C0.66 0.33 1.32 0.66 2 1 C0.47980498 6.03564599 -1.63613593 10.57366021 -4 15.25 C-4.35578125 15.96929687 -4.7115625 16.68859375 -5.078125 17.4296875 C-7.74647556 22.74647556 -7.74647556 22.74647556 -10 25 C-11 22 -11 22 -9.453125 18.41796875 C-8.72880743 17.00262026 -7.99396282 15.59262156 -7.25 14.1875 C-6.70859375 13.13852539 -6.70859375 13.13852539 -6.15625 12.06835938 C-5.44582182 10.69254828 -4.73171277 9.31863071 -4.01367188 7.94677734 C-2.64288806 5.3141593 -1.31899627 2.65886273 0 0 Z " fill="#B7B7B7" transform="translate(508,148)"/>
<path d="M0 0 C-0.99 0.33 -1.98 0.66 -3 1 C-3 2.65 -3 4.3 -3 6 C-6.3125 7.125 -6.3125 7.125 -10 8 C-10.99 7.34 -11.98 6.68 -13 6 C-11.35 5.34 -9.7 4.68 -8 4 C-10.31 4.66 -12.62 5.32 -15 6 C-15 5.01 -15 4.02 -15 3 C-13.06643218 2.30151736 -11.12797702 1.61655186 -9.1875 0.9375 C-8.10855469 0.55464844 -7.02960938 0.17179688 -5.91796875 -0.22265625 C-3 -1 -3 -1 0 0 Z " fill="#989898" transform="translate(475,239)"/>
<path d="M0 0 C0.99 0.33 1.98 0.66 3 1 C2.3503125 2.08667969 2.3503125 2.08667969 1.6875 3.1953125 C1.130625 4.16210938 0.57375 5.12890625 0 6.125 C-0.556875 7.07632813 -1.11375 8.02765625 -1.6875 9.0078125 C-3.12449632 12.28382197 -3.03960613 14.475054 -3 18 C-5.5 20.375 -5.5 20.375 -8 22 C-9.2051933 18.38442009 -8.74896968 17.85748606 -7.12890625 14.55078125 C-6.71962891 13.70322266 -6.31035156 12.85566406 -5.88867188 11.98242188 C-5.2322168 10.66081055 -5.2322168 10.66081055 -4.5625 9.3125 C-4.12873047 8.41982422 -3.69496094 7.52714844 -3.24804688 6.60742188 C-2.17408871 4.40049686 -1.091161 2.19845687 0 0 Z " fill="#CDCDCD" transform="translate(505,197)"/>
<path d="M0 0 C0.33 0.99 0.66 1.98 1 3 C0.01 3.66 -0.98 4.32 -2 5 C-3.07609663 6.13498749 -4.11677441 7.30431538 -5.125 8.5 C-5.64320313 9.1084375 -6.16140625 9.716875 -6.6953125 10.34375 C-8.07346298 11.97845328 -8.07346298 11.97845328 -9 14 C-9.66 14 -10.32 14 -11 14 C-11.34156504 10.7971278 -11.31643794 9.42392161 -9.35546875 6.796875 C-8.64003906 6.12140625 -7.92460938 5.4459375 -7.1875 4.75 C-6.47980469 4.06421875 -5.77210938 3.3784375 -5.04296875 2.671875 C-3 1 -3 1 0 0 Z " fill="#BEBEBE" transform="translate(560,275)"/>
<path d="M0 0 C0.66 0.33 1.32 0.66 2 1 C-0.75 7.75 -0.75 7.75 -3 10 C-6.625 10.125 -6.625 10.125 -10 10 C-3.84965831 2.51708428 -3.84965831 2.51708428 0 0 Z " fill="#5D5D5D" transform="translate(522,250)"/>
<path d="M0 0 C0.99 0.33 1.98 0.66 3 1 C1.50897439 5.60862461 -0.69454418 8.53330244 -4 12 C-4.99 12 -5.98 12 -7 12 C-7 8.19654123 -5.86213669 7.22298985 -3.5 4.3125 C-2.8503125 3.50425781 -2.200625 2.69601562 -1.53125 1.86328125 C-1.0259375 1.24839844 -0.520625 0.63351562 0 0 Z " fill="#E0E0E0" transform="translate(534,302)"/>
<path d="M0 0 C-0.66 0.66 -1.32 1.32 -2 2 C-1.01 2.66 -0.02 3.32 1 4 C-1.64 4.33 -4.28 4.66 -7 5 C-7 5.66 -7 6.32 -7 7 C-9.31 7.33 -11.62 7.66 -14 8 C-11 6 -11 6 -9 5 C-9 3.68 -9 2.36 -9 1 C-3.375 -1.125 -3.375 -1.125 0 0 Z " fill="#D4D4D4" transform="translate(641,247)"/>
<path d="M0 0 C0.99 0.33 1.98 0.66 3 1 C2.34 1 1.68 1 1 1 C0.91363281 1.67804688 0.82726562 2.35609375 0.73828125 3.0546875 C-0.33281559 10.14947573 -2.46136341 15.77362034 -6 22 C-6.66 21.67 -7.32 21.34 -8 21 C-7.73445312 20.34644531 -7.46890625 19.69289062 -7.1953125 19.01953125 C-5.70697928 15.25978753 -4.2899438 11.47535194 -2.875 7.6875 C-2.59785156 6.94693359 -2.32070313 6.20636719 -2.03515625 5.44335938 C-1.35626973 3.62909368 -0.67806589 1.81457256 0 0 Z " fill="#717171" transform="translate(522,161)"/>
<path d="M0 0 C1.32 0.66 2.64 1.32 4 2 C3.67 5.63 3.34 9.26 3 13 C2.67 12.01 2.34 11.02 2 10 C0.68 10 -0.64 10 -2 10 C-2.17942163 6.05272412 -2.09350689 3.4019487 0 0 Z " fill="#E9E9E9" transform="translate(406,290)"/>
<path d="M0 0 C-0.639375 0.28875 -1.27875 0.5775 -1.9375 0.875 C-4.15206079 1.82823451 -4.15206079 1.82823451 -5 4 C-7.0625 4.625 -7.0625 4.625 -9 5 C-9 4.34 -9 3.68 -9 3 C-10.65 2.67 -12.3 2.34 -14 2 C-13.67 1.34 -13.34 0.68 -13 0 C-12.34 0.33 -11.68 0.66 -11 1 C-11 0.34 -11 -0.32 -11 -1 C-3.57142857 -2.42857143 -3.57142857 -2.42857143 0 0 Z " fill="#BDBDBD" transform="translate(452,250)"/>
<path d="M0 0 C0.93045933 2.55144824 1.08564091 3.74006478 0.22265625 6.359375 C-0.16019531 7.14828125 -0.54304688 7.9371875 -0.9375 8.75 C-1.31777344 9.54921875 -1.69804687 10.3484375 -2.08984375 11.171875 C-2.39019531 11.77515625 -2.69054687 12.3784375 -3 13 C-3.66 13 -4.32 13 -5 13 C-5.33 13.66 -5.66 14.32 -6 15 C-6.66 14.67 -7.32 14.34 -8 14 C-7.01 11.36 -6.02 8.72 -5 6 C-4.34 6 -3.68 6 -3 6 C-2.690625 5.195625 -2.38125 4.39125 -2.0625 3.5625 C-1 1 -1 1 0 0 Z " fill="#E5E5E5" transform="translate(511,349)"/>
<path d="M0 0 C0.33 0.66 0.66 1.32 1 2 C-0.06140299 4.79543927 -1.56660609 7.37879366 -3 10 C-3.53625 10.99 -4.0725 11.98 -4.625 13 C-5.305625 13.99 -5.305625 13.99 -6 15 C-6.66 15 -7.32 15 -8 15 C-8.28875 15.969375 -8.5775 16.93875 -8.875 17.9375 C-10 21 -10 21 -12 22 C-10.53506506 16.85271493 -8.2231504 12.69822932 -5.4375 8.1875 C-5.02564453 7.50751953 -4.61378906 6.82753906 -4.18945312 6.12695312 C-1.16952328 1.16952328 -1.16952328 1.16952328 0 0 Z " fill="#666666" transform="translate(524,322)"/>
<path d="M0 0 C0 4.05001735 -1.62437828 6.83250438 -4 10 C-5.92590248 11.61587915 -7.79988144 12.74993263 -10 14 C-8.98187755 11.9637551 -7.96530388 9.93639045 -6.875 7.9375 C-5.79420664 5.89863452 -5.79420664 5.89863452 -6 3 C-5.38125 2.87625 -4.7625 2.7525 -4.125 2.625 C-1.80879168 2.12802644 -1.80879168 2.12802644 0 0 Z " fill="#4E4E4E" transform="translate(542,298)"/>
<path d="M0 0 C-0.66 3.3 -1.32 6.6 -2 10 C-2.33 9.34 -2.66 8.68 -3 8 C-3.99 8.33 -4.98 8.66 -6 9 C-6 6.36 -6 3.72 -6 1 C-4 0 -4 0 0 0 Z " fill="#E8E8E8" transform="translate(414,277)"/>
<path d="M0 0 C0.825 0.309375 1.65 0.61875 2.5 0.9375 C5.26988536 1.77835806 7.47919709 2.21922223 10.3125 2.5 C11.529375 2.665 12.74625 2.83 14 3 C14.33 3.66 14.66 4.32 15 5 C12.03 5 9.06 5 6 5 C5.67 5.66 5.34 6.32 5 7 C3.29115995 5.37660195 1.62553283 3.70680947 0 2 C0 1.34 0 0.68 0 0 Z " fill="#C1C1C1" transform="translate(503,392)"/>
<path d="M0 0 C0.99 0.66 1.98 1.32 3 2 C-0.57729872 6.66132863 -4.10867301 9.73911534 -9 13 C-8.41803841 9.90958329 -7.55817637 8.18297257 -5.4375 5.875 C-2.78443825 3.37395127 -2.78443825 3.37395127 -3 1 C-2.01 0.67 -1.02 0.34 0 0 Z " fill="#9C9C9C" transform="translate(514,259)"/>
<path d="M0 0 C0.5775 0.226875 1.155 0.45375 1.75 0.6875 C0.64184175 3.90115891 -0.23529554 4.6789224 -3.25 6.4375 C-6.25 7.6875 -6.25 7.6875 -8.25 7.6875 C-6.86345583 3.41232214 -5.12511737 -0.71182186 0 0 Z " fill="#D3D3D3" transform="translate(598.25,243.3125)"/>
<path d="M0 0 C0.66 0.33 1.32 0.66 2 1 C2.3152595 6.98993047 1.68219822 10.63560356 -1 16 C-1.99 15.34 -2.98 14.68 -4 14 C-3.525625 12.989375 -3.05125 11.97875 -2.5625 10.9375 C-1.0063672 7.34077795 -0.3987054 3.90731291 0 0 Z " fill="#575757" transform="translate(443,287)"/>
<path d="M0 0 C0.66 0.66 1.32 1.32 2 2 C0.73742767 3.17560179 -0.53537084 4.34022865 -1.8125 5.5 C-2.87404297 6.47453125 -2.87404297 6.47453125 -3.95703125 7.46875 C-6 9 -6 9 -9 9 C-8.43463006 5.72085432 -7.6296988 4.06619192 -5 2 C-2.3125 0.8125 -2.3125 0.8125 0 0 Z " fill="#B3B3B3" transform="translate(581,257)"/>
<path d="M0 0 C0.66 0.99 1.32 1.98 2 3 C1.34 3 0.68 3 0 3 C-0.12246094 3.55171875 -0.24492188 4.1034375 -0.37109375 4.671875 C-1.07993611 7.29591255 -2.03611256 9.7336953 -3.0625 12.25 C-3.42472656 13.14203125 -3.78695313 14.0340625 -4.16015625 14.953125 C-4.57587891 15.96632812 -4.57587891 15.96632812 -5 17 C-5.66 17 -6.32 17 -7 17 C-6.37954537 12.76677156 -4.89476441 9.47709705 -2.9375 5.6875 C-2.38964844 4.61886719 -1.84179688 3.55023438 -1.27734375 2.44921875 C-0.64505859 1.23685547 -0.64505859 1.23685547 0 0 Z " fill="#EBEBEB" transform="translate(513,180)"/>
<path d="M0 0 C0.99 0.33 1.98 0.66 3 1 C2.71715982 2.77226453 2.42339502 4.542788 2.125 6.3125 C1.96257813 7.29863281 1.80015625 8.28476562 1.6328125 9.30078125 C1 12 1 12 -1 15 C-2.4002792 9.53891111 -1.42705634 5.30723432 0 0 Z " fill="#B9B9B9" transform="translate(552,336)"/>
<path d="M0 0 C0.33 0.99 0.66 1.98 1 3 C-4.2734375 6.22265625 -4.2734375 6.22265625 -6 7 C-6.66 6.67 -7.32 6.34 -8 6 C-7.75 4.125 -7.75 4.125 -7 2 C-4.41847698 0.27898465 -3.15081975 0 0 0 Z " fill="#E6E6E6" transform="translate(418,241)"/>
<path d="M0 0 C-0.54723683 3.37462715 -1.0549 5.08235 -3 8 C-3.66 8 -4.32 8 -5 8 C-6.63676257 9.9600281 -6.63676257 9.9600281 -8 12 C-7.49135273 7.62563349 -6.57073772 4.59903281 -4 1 C-2 0 -2 0 0 0 Z " fill="#B5B5B5" transform="translate(515,343)"/>
<path d="M0 0 C0.33 0.99 0.66 1.98 1 3 C-1.97 6.3 -4.94 9.6 -8 13 C-8.33 11.68 -8.66 10.36 -9 9 C-8.34 9 -7.68 9 -7 9 C-6.71125 8.21625 -6.4225 7.4325 -6.125 6.625 C-5 4 -5 4 -3 2 C-2.01 2 -1.02 2 0 2 C0 1.34 0 0.68 0 0 Z " fill="#E2E2E2" transform="translate(553,288)"/>
<path d="M0 0 C-1.87144695 0.82065069 -3.74734336 1.6311584 -5.625 2.4375 C-6.66914063 2.88996094 -7.71328125 3.34242188 -8.7890625 3.80859375 C-11.88685251 4.95801705 -14.73210054 5.57311223 -18 6 C-17 4 -17 4 -14 3 C-14.33 2.34 -14.66 1.68 -15 1 C-14.39671875 0.93941406 -13.7934375 0.87882813 -13.171875 0.81640625 C-11.97304688 0.69072266 -11.97304688 0.69072266 -10.75 0.5625 C-9.96109375 0.48128906 -9.1721875 0.40007812 -8.359375 0.31640625 C-6.0104271 0.05536338 -6.0104271 0.05536338 -3.828125 -0.59765625 C-2 -1 -2 -1 0 0 Z " fill="#F1F1F1" transform="translate(465,247)"/>
<path d="M0 0 C-0.1875 1.875 -0.1875 1.875 -1 4 C-3.375 5.375 -3.375 5.375 -6 6 C-6.99 5.34 -7.98 4.68 -9 4 C-5.86025155 0.71753571 -4.76763047 0 0 0 Z " fill="#E2E2E2" transform="translate(655,241)"/>
<path d="M0 0 C-0.375 1.9375 -0.375 1.9375 -1 4 C-3.70879335 5.35439668 -6.00933268 5.06501451 -9 5 C-5.34782609 -1.7826087 -5.34782609 -1.7826087 0 0 Z " fill="#D7D7D7" transform="translate(411,245)"/>
<path d="M0 0 C0.66 0.33 1.32 0.66 2 1 C-2 5 -6 9 -10 13 C-10 8.83248505 -7.76127698 6.85829482 -5 4 C-3.36927384 2.62294236 -1.7133562 1.27277889 0 0 Z " fill="#8A8A8A" transform="translate(349,233)"/>
<path d="M0 0 C0.33 0.66 0.66 1.32 1 2 C-0.07421875 4.27734375 -0.07421875 4.27734375 -1.6875 6.9375 C-2.46673828 8.25041016 -2.46673828 8.25041016 -3.26171875 9.58984375 C-4.97618665 11.96698238 -6.56945192 13.39552055 -9 15 C-8.39889717 10.99264783 -6.33397972 8.44530629 -3.9375 5.25 C-2.83728516 3.77273438 -2.83728516 3.77273438 -1.71484375 2.265625 C-1.14894531 1.51796875 -0.58304688 0.7703125 0 0 Z " fill="#868686" transform="translate(541,375)"/>
<path d="M0 0 C-1.34710422 4.04131267 -3.38428334 4.90288434 -7 7 C-7.99 7 -8.98 7 -10 7 C-10 6.01 -10 5.02 -10 4 C-8.71086513 3.32845067 -7.41859796 2.66291141 -6.125 2 C-5.40570313 1.62875 -4.68640625 1.2575 -3.9453125 0.875 C-2 0 -2 0 0 0 Z " fill="#E9E9E9" transform="translate(356,236)"/>
<path d="M0 0 C0.99 0 1.98 0 3 0 C2.34 2.97 1.68 5.94 1 9 C0.67 8.34 0.34 7.68 0 7 C-0.99 6.67 -1.98 6.34 -3 6 C-2.01 4.02 -1.02 2.04 0 0 Z " fill="#DEDEDE" transform="translate(507,155)"/>
<path d="M0 0 C-1.47692308 4.67692308 -1.47692308 4.67692308 -4.125 6.3125 C-5.053125 6.6528125 -5.053125 6.6528125 -6 7 C-6 7.66 -6 8.32 -6 9 C-6.66 9 -7.32 9 -8 9 C-6.84826645 6.53199953 -5.95216435 4.95216435 -4 3 C-4.33 2.34 -4.66 1.68 -5 1 C-3 0 -3 0 0 0 Z " fill="#626262" transform="translate(561,278)"/>
<path d="M0 0 C0.66 0 1.32 0 2 0 C2 0.66 2 1.32 2 2 C2.99 2.33 3.98 2.66 5 3 C4.01 4.485 4.01 4.485 3 6 C1.68 6 0.36 6 -1 6 C-1.625 4.125 -1.625 4.125 -2 2 C-1.34 1.34 -0.68 0.68 0 0 Z " fill="#D0D0D0" transform="translate(395,248)"/>
<path d="M0 0 C0.66 0.33 1.32 0.66 2 1 C1.48964169 5.3890815 0.47785723 8.33708062 -2 12 C-2.66 11.67 -3.32 11.34 -4 11 C-2.68 7.37 -1.36 3.74 0 0 Z " fill="#D5D5D5" transform="translate(517,168)"/>
<path d="M0 0 C0.33 0.99 0.66 1.98 1 3 C-0.109375 5.04296875 -0.109375 5.04296875 -1.75 7.1875 C-2.28109375 7.90292969 -2.8121875 8.61835938 -3.359375 9.35546875 C-3.90078125 9.89816406 -4.4421875 10.44085938 -5 11 C-5.99 11 -6.98 11 -8 11 C-8 10.34 -8 9.68 -8 9 C-7.34 8.67 -6.68 8.34 -6 8 C-4.9935725 6.33720673 -3.99414593 4.67016516 -3 3 C-1.3125 1.1875 -1.3125 1.1875 0 0 Z " fill="#E1E1E1" transform="translate(533,313)"/>
<path d="M0 0 C0.99 0.33 1.98 0.66 3 1 C0.03 3.64 -2.94 6.28 -6 9 C-6.99 8.67 -7.98 8.34 -9 8 C-8.67 7.01 -8.34 6.02 -8 5 C-7.01 5 -6.02 5 -5 5 C-2.31232422 2.56249975 -2.31232422 2.56249975 0 0 Z " fill="#D5D5D5" transform="translate(576,266)"/>
<path d="M0 0 C0.99 0.33 1.98 0.66 3 1 C3 5.62 3 10.24 3 15 C2.34 14.67 1.68 14.34 1 14 C1.03255208 11.94921875 1.06510417 9.8984375 1.09765625 7.84765625 C1.20561184 5.98267859 1.20561184 5.98267859 0 5 C-0.04063832 3.33382885 -0.042721 1.66611905 0 0 Z " fill="#C8C8C8" transform="translate(443,282)"/>
<path d="M0 0 C0.66 0.33 1.32 0.66 2 1 C-1.3 3.97 -4.6 6.94 -8 10 C-8.66 9.34 -9.32 8.68 -10 8 C-6.7 5.36 -3.4 2.72 0 0 Z " fill="#585858" transform="translate(595,248)"/>
<path d="M0 0 C0.66 0.66 1.32 1.32 2 2 C1.66226563 2.47050781 1.32453125 2.94101562 0.9765625 3.42578125 C0.30753906 4.35970703 0.30753906 4.35970703 -0.375 5.3125 C-0.81585937 5.92738281 -1.25671875 6.54226563 -1.7109375 7.17578125 C-2.83410907 8.7652392 -3.92041447 10.38062171 -5 12 C-5.66 11.34 -6.32 10.68 -7 10 C-3.535 5.05 -3.535 5.05 0 0 Z " fill="#E3E3E3" transform="translate(540,373)"/>
<path d="M0 0 C0.66 0.66 1.32 1.32 2 2 C0.35 4.64 -1.3 7.28 -3 10 C-3.66 9.01 -4.32 8.02 -5 7 C-3.35 4.69 -1.7 2.38 0 0 Z " fill="#BDBDBD" transform="translate(519,323)"/>
<path d="M0 0 C0.66 0 1.32 0 2 0 C2.33 1.98 2.66 3.96 3 6 C0 7 0 7 -3 7 C-3 5 -3 5 -1 3 C-0.67 2.01 -0.34 1.02 0 0 Z " fill="#C4C4C4" transform="translate(436,309)"/>
<path d="M0 0 C0.66 0.33 1.32 0.66 2 1 C1.38722388 3.96175123 0.74627478 5.38058783 -1 8 C-1.66 8 -2.32 8 -3 8 C-3.36923077 3.44615385 -3.36923077 3.44615385 -1.5 1.1875 C-1.005 0.795625 -0.51 0.40375 0 0 Z " fill="#DDDDDD" transform="translate(552,281)"/>
<path d="M0 0 C0.66 0 1.32 0 2 0 C1.25 6.625 1.25 6.625 -1 10 C-1 9.34 -1 8.68 -1 8 C-1.66 7.67 -2.32 7.34 -3 7 C-2.01 4.69 -1.02 2.38 0 0 Z " fill="#6C6C6C" transform="translate(513,183)"/>
<path d="M0 0 C0.95465783 2.16967689 1.14401212 3.56328793 0.3984375 5.82421875 C-0.35870385 7.5684743 -1.17609198 9.28627131 -2 11 C-2.66 10.67 -3.32 10.34 -4 10 C-3.52449439 8.51965236 -3.04448784 7.04074979 -2.5625 5.5625 C-2.29566406 4.73878906 -2.02882813 3.91507813 -1.75390625 3.06640625 C-1 1 -1 1 0 0 Z " fill="#D1D1D1" transform="translate(501,162)"/>
<path d="M0 0 C0.99 0.33 1.98 0.66 3 1 C2.34 2.65 1.68 4.3 1 6 C0.01 6 -0.98 6 -2 6 C-2.33 5.01 -2.66 4.02 -3 3 C-2.01 2.01 -1.02 1.02 0 0 Z " fill="#CFCFCF" transform="translate(534,302)"/>
<path d="M0 0 C0.99 0 1.98 0 3 0 C2.25 4.75 2.25 4.75 0 7 C-0.66 6.01 -1.32 5.02 -2 4 C-1.34 2.68 -0.68 1.36 0 0 Z " fill="#B0B0B0" transform="translate(542,368)"/>
<path d="M0 0 C0.6875 1.75 0.6875 1.75 1 4 C-0.3125 6.25 -0.3125 6.25 -2 8 C-2.66 8 -3.32 8 -4 8 C-2.25 2.25 -2.25 2.25 0 0 Z " fill="#F5F5F5" transform="translate(511,349)"/>
<path d="M0 0 C0.93065133 2.60582371 1.14917407 3.64198224 0.0625 6.25 C-0.4634375 7.11625 -0.4634375 7.11625 -1 8 C-1.99 8 -2.98 8 -4 8 C-2.87548273 5.0280615 -1.77706209 2.66559313 0 0 Z " fill="#DEDEDE" transform="translate(514,331)"/>
<path d="M0 0 C1.485 0.99 1.485 0.99 3 2 C2.67 4.31 2.34 6.62 2 9 C1.01 9 0.02 9 -1 9 C-0.67 6.03 -0.34 3.06 0 0 Z " fill="#C8C8C8" transform="translate(555,322)"/>
<path d="M0 0 C0.66 1.32 1.32 2.64 2 4 C2.66 4 3.32 4 4 4 C4.33 4.99 4.66 5.98 5 7 C3 7 1 7 -1 7 C-0.67 4.69 -0.34 2.38 0 0 Z " fill="#CFCFCF" transform="translate(407,281)"/>
<path d="M0 0 C0.33 0.66 0.66 1.32 1 2 C0.07421875 3.9453125 0.07421875 3.9453125 -1.3125 6.125 C-1.76238281 6.84945313 -2.21226562 7.57390625 -2.67578125 8.3203125 C-3.11277344 8.87460937 -3.54976562 9.42890625 -4 10 C-4.66 10 -5.32 10 -6 10 C-4.6302836 6.00499382 -2.74277578 3.19990508 0 0 Z " fill="#494949" transform="translate(531,312)"/>
<path d="M0 0 C0.99 0.33 1.98 0.66 3 1 C1.90716423 2.03295436 0.80029421 3.05107835 -0.3125 4.0625 C-0.92738281 4.63097656 -1.54226563 5.19945312 -2.17578125 5.78515625 C-2.77777344 6.18605469 -3.37976563 6.58695312 -4 7 C-4.99 6.67 -5.98 6.34 -7 6 C-5.90716423 4.96704564 -4.80029421 3.94892165 -3.6875 2.9375 C-3.07261719 2.36902344 -2.45773437 1.80054688 -1.82421875 1.21484375 C-0.92123047 0.61349609 -0.92123047 0.61349609 0 0 Z " fill="#E4E4E4" transform="translate(584,259)"/>
<path d="M0 0 C1.32 0.66 2.64 1.32 4 2 C2.68799596 3.35432675 1.35368596 4.68733482 0 6 C-0.33 6 -0.66 6 -1 6 C-1.042721 4.33388095 -1.04063832 2.66617115 -1 1 C-0.67 0.67 -0.34 0.34 0 0 Z " fill="#4E4E4E" transform="translate(569,267)"/>
</svg>
